{
    "asset" : {
        "copyright" : "johnhanacek.net",
        "generator" : "Khronos Blender glTF 2.0 I/O",
        "version" : "2.0"
    },
    "scene" : 0,
    "scenes" : [
        {
            "name" : "Scene"
        }
    ],
    "animations" : [
        {
            "channels" : [
                {
                    "sampler" : 0,
                    "target" : {
                        "path" : "translation"
                    }
                },
                {
                    "sampler" : 1,
                    "target" : {
                        "path" : "rotation"
                    }
                },
                {
                    "sampler" : 2,
                    "target" : {
                        "path" : "scale"
                    }
                }
            ],
            "name" : "HeartAction_Heart",
            "samplers" : [
                {
                    "input" : 0,
                    "interpolation" : "CUBICSPLINE",
                    "output" : 1
                },
                {
                    "input" : 2,
                    "interpolation" : "CUBICSPLINE",
                    "output" : 3
                },
                {
                    "input" : 4,
                    "interpolation" : "CUBICSPLINE",
                    "output" : 5
                }
            ]
        }
    ],
    "accessors" : [
        {
            "bufferView" : 0,
            "componentType" : 5126,
            "count" : 6,
            "max" : [
                9.75
            ],
            "min" : [
                0.041666666666666664
            ],
            "type" : "SCALAR"
        },
        {
            "bufferView" : 1,
            "componentType" : 5126,
            "count" : 18,
            "type" : "VEC3"
        },
        {
            "bufferView" : 2,
            "componentType" : 5126,
            "count" : 6,
            "max" : [
                9.75
            ],
            "min" : [
                0.041666666666666664
            ],
            "type" : "SCALAR"
        },
        {
            "bufferView" : 3,
            "componentType" : 5126,
            "count" : 18,
            "type" : "VEC4"
        },
        {
            "bufferView" : 4,
            "componentType" : 5126,
            "count" : 6,
            "max" : [
                9.75
            ],
            "min" : [
                0.041666666666666664
            ],
            "type" : "SCALAR"
        },
        {
            "bufferView" : 5,
            "componentType" : 5126,
            "count" : 18,
            "type" : "VEC3"
        }
    ],
    "bufferViews" : [
        {
            "buffer" : 0,
            "byteLength" : 24,
            "byteOffset" : 0
        },
        {
            "buffer" : 0,
            "byteLength" : 216,
            "byteOffset" : 24
        },
        {
            "buffer" : 0,
            "byteLength" : 24,
            "byteOffset" : 240
        },
        {
            "buffer" : 0,
            "byteLength" : 288,
            "byteOffset" : 264
        },
        {
            "buffer" : 0,
            "byteLength" : 24,
            "byteOffset" : 552
        },
        {
            "buffer" : 0,
            "byteLength" : 216,
            "byteOffset" : 576
        }
    ],
    "buffers" : [
        {
            "byteLength" : 792,
            "uri" : "HoloHealingtext.bin"
        }
    ]
}
